<?xml version="1.0" encoding="UTF-8" standalone="no" ?>
<!DOCTYPE svg PUBLIC "-//W3C//DTD SVG 1.1//EN" "http://www.w3.org/Graphics/SVG/1.1/DTD/svg11.dtd">
<svg xmlns="http://www.w3.org/2000/svg" xmlns:xlink="http://www.w3.org/1999/xlink" version="1.1" width="1280" height="720" viewBox="0 0 1280 720" xml:space="preserve">
<desc>Created with Fabric.js 5.2.4</desc>
<defs>
</defs>
<rect x="0" y="0" width="100%" height="100%" fill="transparent"></rect>
<g transform="matrix(1 0 0 1 640 360)" id="eb807614-2d80-46f4-8b57-cb196b157486"  >
<rect style="stroke: none; stroke-width: 1; stroke-dasharray: none; stroke-linecap: butt; stroke-dashoffset: 0; stroke-linejoin: miter; stroke-miterlimit: 4; fill: rgb(255,255,255); fill-rule: nonzero; opacity: 1; visibility: hidden;" vector-effect="non-scaling-stroke"  x="-640" y="-360" rx="0" ry="0" width="1280" height="720" />
</g>
<g transform="matrix(Infinity NaN NaN Infinity 0 0)" id="8e890282-7c52-40e3-b842-168f42580846"  >
</g>
<g transform="matrix(0.33 0 0 0.33 143.23 14.66)" style="" id="12e5d484-7fb7-40dc-8321-5b5bf9af239f"  >
		<rect opacity="0" fill="rgb(0,0,0)" x="-432" y="-51.41" width="864" height="102.83"></rect>
		<text xml:space="preserve" font-family="Raleway" font-size="91" font-style="normal" font-weight="900" style="stroke: none; stroke-width: 1; stroke-dasharray: none; stroke-linecap: butt; stroke-dashoffset: 0; stroke-linejoin: miter; stroke-miterlimit: 4; fill: rgb(0,0,0); fill-rule: nonzero; opacity: 1; white-space: pre;" ><tspan x="-432" y="28.59" >I</tspan><tspan x="-405.88" y="28.59" >N</tspan><tspan x="-340" y="28.59" >V</tspan><tspan x="-281.58" y="28.59" >E</tspan><tspan x="-229.98" y="28.59" >S</tspan><tspan x="-176.56" y="28.59" >T</tspan><tspan x="-123.51" y="28.59" >O</tspan><tspan x="-56.62" y="28.59" >R</tspan><tspan x="2.07" y="28.59" >S</tspan></text>
</g>
<g transform="matrix(0.45 0 0 0.45 275.04 38.37)" style="" id="4788a8d5-9616-4dd4-8b3d-106bd9c307c5"  >
		<rect opacity="0" fill="rgb(84,15,116)" x="-432" y="-37.85" width="864" height="75.71"></rect>
		<text xml:space="preserve" font-family="Raleway" font-size="67" font-style="normal" font-weight="900" style="stroke: none; stroke-width: 1; stroke-dasharray: none; stroke-linecap: butt; stroke-dashoffset: 0; stroke-linejoin: miter; stroke-miterlimit: 4; fill: rgb(230,161,6); fill-rule: nonzero; opacity: 1; white-space: pre;" ><tspan x="-432" y="21.05" >H</tspan><tspan x="-384.43" y="21.05" >U</tspan><tspan x="-337.33" y="21.05" >B</tspan></text>
</g>
</svg>